<?xml version="1.0" encoding="utf-8"?>
<!-- Generator: Adobe Illustrator 18.1.1, SVG Export Plug-In . SVG Version: 6.00 Build 0)  -->
<svg version="1.1" xmlns="http://www.w3.org/2000/svg" xmlns:xlink="http://www.w3.org/1999/xlink" x="0px" y="0px"
	 viewBox="0 0 480 640" enable-background="new 0 0 480 640" xml:space="preserve">
<g id="Layer_1">
	<g>
		<path fill="#FCFBF9" d="M269.3,271.2c4.6-12.2,4-23.8-1.2-26.9l-17.4,46.4c5.3,1,12.3-5.6,17-15.7c0.2-0.4,0.4-0.8,0.6-1.2
			c0.2-0.4,0.4-0.8,0.5-1.3C269,272.1,269.2,271.7,269.3,271.2z"/>
		<path fill="#FCFBF9" d="M247.8,263.2c-4.5,12-4,23.5,1,26.8l17.3-46.3C260.3,242.8,252.3,251.1,247.8,263.2z"/>
	</g>
	<g>
		<path fill="#FCFBF9" d="M213.1,281.4c-11.3-6.6-22.8-7.9-26.7-3.3l42.8,24.9c1.9-5-3.5-13-12.6-19.4c-0.4-0.3-0.7-0.5-1.1-0.8
			c-0.4-0.2-0.8-0.5-1.2-0.7C213.9,281.9,213.5,281.6,213.1,281.4z"/>
		<path fill="#FCFBF9" d="M201.5,301.2c11.1,6.5,22.5,7.9,26.6,3.5l-42.7-24.8C183.5,285.6,190.4,294.8,201.5,301.2z"/>
	</g>
	<g>
		<path fill="#FCFBF9" d="M326.6,311.8c14.5,3.1,27.4,0.5,29.9-5.8l-54.9-11.7C301.4,301.1,312.1,308.7,326.6,311.8z"/>
		<path fill="#FCFBF9" d="M332,286.4c-14.3-3-27.1-0.5-29.8,5.6l54.8,11.7C356.9,296.9,346.3,289.4,332,286.4z"/>
	</g>
	<g>
		<path fill="#FCFBF9" d="M155.5,243.9c12.1,14.1,27,21.3,34.3,17L144,207.4C138.5,214,143.4,229.8,155.5,243.9z"/>
		<path fill="#FCFBF9" d="M180.3,222.6c-11.9-13.9-26.6-21.1-34-17.1l45.8,53.4C197.1,252.1,192.2,236.5,180.3,222.6z"/>
	</g>
	<g>
		<path fill="#FCFBF9" d="M141.1,285.6c11.1,2.5,21,0.6,23.1-4.2l-42-9.6C121.8,277.1,130,283.1,141.1,285.6z"/>
		<path fill="#FCFBF9" d="M145.5,266.1c-10.9-2.5-20.8-0.7-23,4l42,9.6C164.6,274.5,156.4,268.6,145.5,266.1z"/>
	</g>
	<g>
		<path fill="#FCFBF9" d="M170.9,337.7c12.2-5.9,20-15,18.3-21L143,339C146.7,344,158.7,343.6,170.9,337.7z"/>
		<path fill="#FCFBF9" d="M160.5,316.2c-12,5.8-19.8,14.8-18.4,20.8l46.1-22.3C184.5,309.9,172.5,310.4,160.5,316.2z"/>
	</g>
	<g>
		<path fill="#FCFBF9" d="M224.7,204.8c-3.2-10.9-9.6-18.7-14.8-18.2l12,41.5C226.5,225.8,227.8,215.7,224.7,204.8z"/>
		<path fill="#FCFBF9" d="M205.4,210.4c3.1,10.8,9.5,18.5,14.6,18.2l-11.9-41.4C203.6,189.6,202.3,199.6,205.4,210.4z"/>
	</g>
	<g>
		<path fill="#FCFBF9" d="M232.2,256.6c-1.7-5.7-5.9-9.6-9.6-9l6.3,21.8C232.3,267.9,233.8,262.4,232.2,256.6z"/>
		<path fill="#FCFBF9" d="M218,260.7c1.6,5.7,5.8,9.5,9.5,9l-6.3-21.7C217.8,249.6,216.4,255.1,218,260.7z"/>
	</g>
	<g>
		<path fill="#FCFBF9" d="M310.1,323.7c-9-6.9-18.8-9.4-22.7-5.9l34.2,26.4C324,339.6,319.1,330.7,310.1,323.7z"/>
		<path fill="#FCFBF9" d="M297.8,339.6c8.9,6.9,18.6,9.4,22.5,6.1l-34.1-26.3C284.1,324,289,332.7,297.8,339.6z"/>
	</g>
	<g>
		<g id="XMLID_3_">
			<g>
				<path fill="#FCFBF9" d="M271.4,165.8c7.8,3.4,10.6,19.8,6.2,37.8c-4.4,18-14.5,31.2-23,30.6L271.4,165.8z"/>
				<path fill="#FCFBF9" d="M268.5,165.2l-16.8,68.3c-7.6-3.7-10.2-19.9-5.9-37.7C250.2,178,260.1,164.9,268.5,165.2z"/>
			</g>
			<g>
			</g>
		</g>
	</g>
	<g>
		<g id="XMLID_2_">
			<g>
				<path fill="#FCFBF9" d="M335.4,228.6c3,6.2-3.9,17.8-16.2,26.6c-12.3,8.8-25.4,11.6-30.4,6.7L335.4,228.6z"/>
				<path fill="#FCFBF9" d="M333.9,226.7l-46.5,33.2c-2.7-6.3,4.2-17.7,16.3-26.3C315.8,225,328.8,222.1,333.9,226.7z"/>
			</g>
			<g>
			</g>
		</g>
	</g>
</g>
<g id="Layer_2">
	<g id="XMLID_4_">
		<g>
			<path fill="#FCFBF9" d="M240.5,325.1c16-20.7,32.5-47.7,65-51.8c-63.5,23.2-51.4,77.7-46.2,209.2c-11.1,0-22.2,0-33.3,0
				c9.7-136,14.5-159.7-26.8-163.2v-0.1C218.2,317.9,231.8,318.8,240.5,325.1z"/>
		</g>
		<g>
			<path fill="none" stroke="#FCFBF9" stroke-linecap="round" stroke-linejoin="round" stroke-miterlimit="10" d="M199.2,319.1
				c19-1.2,32.6-0.3,41.3,5.9"/>
			<path fill="none" stroke="#FCFBF9" stroke-linecap="round" stroke-linejoin="round" stroke-miterlimit="10" d="M305.5,273.3
				c-32.5,4.1-49,31.1-65,51.8"/>
			<path fill="none" stroke="#FCFBF9" stroke-linecap="round" stroke-linejoin="round" stroke-miterlimit="10" d="M199.2,319.3
				c41.3,3.5,36.5,27.2,26.8,163.2"/>
			<path fill="none" stroke="#FCFBF9" stroke-linecap="round" stroke-linejoin="round" stroke-miterlimit="10" d="M305.5,273.3
				c-63.5,23.2-51.4,77.7-46.2,209.2"/>
			<path fill="none" stroke="#FCFBF9" stroke-linecap="round" stroke-linejoin="round" stroke-miterlimit="10" d="M226,482.5
				c11.1,0,22.2,0,33.3,0"/>
		</g>
	</g>
</g>
</svg>
